<mxfile host="65bd71144e">
    <diagram id="GLLiEdLYHsoMkYqydyQt" name="Page-1">
        <mxGraphModel dx="2220" dy="3378" grid="1" gridSize="10" guides="1" tooltips="1" connect="1" arrows="1" fold="1" page="1" pageScale="1" pageWidth="850" pageHeight="1100" math="0" shadow="0">
            <root>
                <mxCell id="0"/>
                <mxCell id="1" parent="0"/>
                <mxCell id="41" style="edgeStyle=orthogonalEdgeStyle;html=1;exitX=0.75;exitY=1;exitDx=0;exitDy=0;entryX=0.25;entryY=0;entryDx=0;entryDy=0;strokeColor=#000000;" edge="1" parent="1" source="25" target="40">
                    <mxGeometry relative="1" as="geometry"/>
                </mxCell>
                <mxCell id="91" style="edgeStyle=orthogonalEdgeStyle;html=1;exitX=0.5;exitY=1;exitDx=0;exitDy=0;entryX=0.75;entryY=0;entryDx=0;entryDy=0;strokeColor=#000000;" edge="1" parent="1" source="25" target="43">
                    <mxGeometry relative="1" as="geometry">
                        <Array as="points">
                            <mxPoint x="185" y="-880"/>
                            <mxPoint x="150" y="-880"/>
                        </Array>
                    </mxGeometry>
                </mxCell>
                <mxCell id="25" value="product_index" style="rounded=0;whiteSpace=wrap;html=1;fillColor=#008a00;fontColor=#ffffff;strokeColor=#000000;" vertex="1" parent="1">
                    <mxGeometry x="140" y="-1010" width="90" height="40" as="geometry"/>
                </mxCell>
                <mxCell id="42" style="edgeStyle=orthogonalEdgeStyle;html=1;exitX=0.25;exitY=1;exitDx=0;exitDy=0;entryX=0.75;entryY=0;entryDx=0;entryDy=0;strokeColor=#000000;" edge="1" parent="1" source="26" target="40">
                    <mxGeometry relative="1" as="geometry"/>
                </mxCell>
                <mxCell id="88" style="edgeStyle=orthogonalEdgeStyle;html=1;exitX=0.25;exitY=0;exitDx=0;exitDy=0;entryX=0.5;entryY=0;entryDx=0;entryDy=0;strokeColor=#000000;" edge="1" parent="1" source="26" target="36">
                    <mxGeometry relative="1" as="geometry">
                        <Array as="points">
                            <mxPoint x="410" y="-1030"/>
                            <mxPoint x="130" y="-1030"/>
                        </Array>
                    </mxGeometry>
                </mxCell>
                <mxCell id="268" style="edgeStyle=orthogonalEdgeStyle;html=1;exitX=1;exitY=0.75;exitDx=0;exitDy=0;entryX=0.5;entryY=0;entryDx=0;entryDy=0;strokeColor=#000000;fontSize=7;" edge="1" parent="1" source="26" target="29">
                    <mxGeometry relative="1" as="geometry"/>
                </mxCell>
                <mxCell id="26" value="currency" style="rounded=0;whiteSpace=wrap;html=1;fillColor=#008a00;fontColor=#ffffff;strokeColor=#000000;" vertex="1" parent="1">
                    <mxGeometry x="390" y="-1010" width="80" height="40" as="geometry"/>
                </mxCell>
                <mxCell id="31" style="edgeStyle=orthogonalEdgeStyle;html=1;exitX=0.5;exitY=0;exitDx=0;exitDy=0;entryX=0.5;entryY=1;entryDx=0;entryDy=0;strokeColor=#000000;" edge="1" parent="1" source="27" target="29">
                    <mxGeometry relative="1" as="geometry"/>
                </mxCell>
                <mxCell id="27" value="call&lt;br&gt;add_currency" style="rounded=0;whiteSpace=wrap;html=1;fillColor=#6a00ff;fontColor=#ffffff;strokeColor=#000000;" vertex="1" parent="1">
                    <mxGeometry x="435" y="-860" width="80" height="40" as="geometry"/>
                </mxCell>
                <mxCell id="28" value="return" style="rounded=0;whiteSpace=wrap;html=1;fillColor=#6a00ff;fontColor=#ffffff;strokeColor=#000000;" vertex="1" parent="1">
                    <mxGeometry x="500" y="-1010" width="80" height="40" as="geometry"/>
                </mxCell>
                <mxCell id="30" style="edgeStyle=orthogonalEdgeStyle;html=1;exitX=0.25;exitY=0;exitDx=0;exitDy=0;entryX=0.75;entryY=1;entryDx=0;entryDy=0;strokeColor=#000000;" edge="1" parent="1" source="29" target="26">
                    <mxGeometry relative="1" as="geometry"/>
                </mxCell>
                <mxCell id="32" style="edgeStyle=orthogonalEdgeStyle;html=1;exitX=0.75;exitY=0;exitDx=0;exitDy=0;entryX=0.25;entryY=1;entryDx=0;entryDy=0;strokeColor=#000000;" edge="1" parent="1" source="29" target="28">
                    <mxGeometry relative="1" as="geometry"/>
                </mxCell>
                <mxCell id="29" value="insert" style="rounded=0;whiteSpace=wrap;html=1;fillColor=#a20025;fontColor=#ffffff;strokeColor=#000000;" vertex="1" parent="1">
                    <mxGeometry x="435" y="-930" width="80" height="40" as="geometry"/>
                </mxCell>
                <mxCell id="45" style="edgeStyle=orthogonalEdgeStyle;html=1;exitX=0.5;exitY=0;exitDx=0;exitDy=0;entryX=0.5;entryY=1;entryDx=0;entryDy=0;strokeColor=#000000;" edge="1" parent="1" source="33" target="43">
                    <mxGeometry relative="1" as="geometry"/>
                </mxCell>
                <mxCell id="33" value="call&lt;br&gt;add_product" style="rounded=0;whiteSpace=wrap;html=1;fillColor=#6a00ff;fontColor=#ffffff;strokeColor=#000000;" vertex="1" parent="1">
                    <mxGeometry x="90" y="-790" width="80" height="40" as="geometry"/>
                </mxCell>
                <mxCell id="34" value="return" style="rounded=0;whiteSpace=wrap;html=1;fillColor=#6a00ff;fontColor=#ffffff;strokeColor=#000000;" vertex="1" parent="1">
                    <mxGeometry x="30" y="-1010" width="80" height="40" as="geometry"/>
                </mxCell>
                <mxCell id="37" style="edgeStyle=orthogonalEdgeStyle;html=1;exitX=0.75;exitY=0;exitDx=0;exitDy=0;entryX=0.25;entryY=1;entryDx=0;entryDy=0;strokeColor=#000000;" edge="1" parent="1" source="36" target="25">
                    <mxGeometry relative="1" as="geometry"/>
                </mxCell>
                <mxCell id="38" style="edgeStyle=orthogonalEdgeStyle;html=1;exitX=0.25;exitY=0;exitDx=0;exitDy=0;entryX=0.5;entryY=1;entryDx=0;entryDy=0;strokeColor=#000000;" edge="1" parent="1" source="36" target="34">
                    <mxGeometry relative="1" as="geometry"/>
                </mxCell>
                <mxCell id="36" value="insert" style="rounded=0;whiteSpace=wrap;html=1;fillColor=#a20025;fontColor=#ffffff;strokeColor=#000000;" vertex="1" parent="1">
                    <mxGeometry x="90" y="-930" width="80" height="40" as="geometry"/>
                </mxCell>
                <mxCell id="47" style="edgeStyle=orthogonalEdgeStyle;html=1;exitX=0.5;exitY=1;exitDx=0;exitDy=0;entryX=0.5;entryY=0;entryDx=0;entryDy=0;strokeColor=#000000;" edge="1" parent="1" source="40" target="46">
                    <mxGeometry relative="1" as="geometry"/>
                </mxCell>
                <mxCell id="40" value="cross" style="rounded=0;whiteSpace=wrap;html=1;fillColor=#a20025;fontColor=#ffffff;strokeColor=#000000;" vertex="1" parent="1">
                    <mxGeometry x="270" y="-930" width="80" height="40" as="geometry"/>
                </mxCell>
                <mxCell id="44" style="edgeStyle=orthogonalEdgeStyle;html=1;exitX=0.5;exitY=0;exitDx=0;exitDy=0;entryX=0.5;entryY=1;entryDx=0;entryDy=0;strokeColor=#000000;" edge="1" parent="1" source="43" target="36">
                    <mxGeometry relative="1" as="geometry"/>
                </mxCell>
                <mxCell id="43" value="size" style="rounded=0;whiteSpace=wrap;html=1;fillColor=#a20025;fontColor=#ffffff;strokeColor=#000000;" vertex="1" parent="1">
                    <mxGeometry x="90" y="-860" width="80" height="40" as="geometry"/>
                </mxCell>
                <mxCell id="49" style="edgeStyle=orthogonalEdgeStyle;html=1;exitX=0.5;exitY=1;exitDx=0;exitDy=0;entryX=0.5;entryY=0;entryDx=0;entryDy=0;strokeColor=#000000;" edge="1" parent="1" source="46" target="48">
                    <mxGeometry relative="1" as="geometry"/>
                </mxCell>
                <mxCell id="46" value="where" style="rounded=0;whiteSpace=wrap;html=1;fillColor=#a20025;fontColor=#ffffff;strokeColor=#000000;" vertex="1" parent="1">
                    <mxGeometry x="270" y="-860" width="80" height="40" as="geometry"/>
                </mxCell>
                <mxCell id="51" style="edgeStyle=orthogonalEdgeStyle;html=1;exitX=0.5;exitY=1;exitDx=0;exitDy=0;entryX=0.5;entryY=0;entryDx=0;entryDy=0;strokeColor=#000000;" edge="1" parent="1" source="48" target="50">
                    <mxGeometry relative="1" as="geometry"/>
                </mxCell>
                <mxCell id="48" value="flatten" style="rounded=0;whiteSpace=wrap;html=1;fillColor=#a20025;fontColor=#ffffff;strokeColor=#000000;" vertex="1" parent="1">
                    <mxGeometry x="270" y="-790" width="80" height="40" as="geometry"/>
                </mxCell>
                <mxCell id="53" style="edgeStyle=orthogonalEdgeStyle;html=1;exitX=0.5;exitY=1;exitDx=0;exitDy=0;entryX=0.5;entryY=0;entryDx=0;entryDy=0;strokeColor=#000000;" edge="1" parent="1" source="50" target="52">
                    <mxGeometry relative="1" as="geometry"/>
                </mxCell>
                <mxCell id="50" value="map" style="rounded=0;whiteSpace=wrap;html=1;fillColor=#a20025;fontColor=#ffffff;strokeColor=#000000;" vertex="1" parent="1">
                    <mxGeometry x="270" y="-720" width="80" height="40" as="geometry"/>
                </mxCell>
                <mxCell id="52" value="return" style="rounded=0;whiteSpace=wrap;html=1;fillColor=#6a00ff;fontColor=#ffffff;strokeColor=#000000;" vertex="1" parent="1">
                    <mxGeometry x="270" y="-650" width="80" height="40" as="geometry"/>
                </mxCell>
                <mxCell id="55" style="edgeStyle=orthogonalEdgeStyle;html=1;exitX=0.5;exitY=1;exitDx=0;exitDy=0;entryX=0.5;entryY=0;entryDx=0;entryDy=0;strokeColor=#000000;" edge="1" parent="1" source="54" target="40">
                    <mxGeometry relative="1" as="geometry"/>
                </mxCell>
                <mxCell id="54" value="call&lt;br&gt;get_products" style="rounded=0;whiteSpace=wrap;html=1;fillColor=#6a00ff;fontColor=#ffffff;strokeColor=#000000;" vertex="1" parent="1">
                    <mxGeometry x="270" y="-1010" width="80" height="40" as="geometry"/>
                </mxCell>
                <mxCell id="56" style="edgeStyle=orthogonalEdgeStyle;html=1;exitX=0.75;exitY=1;exitDx=0;exitDy=0;entryX=0.25;entryY=0;entryDx=0;entryDy=0;strokeColor=#000000;" edge="1" parent="1" source="57" target="73">
                    <mxGeometry relative="1" as="geometry"/>
                </mxCell>
                <mxCell id="86" style="edgeStyle=orthogonalEdgeStyle;html=1;exitX=0.5;exitY=1;exitDx=0;exitDy=0;entryX=0.75;entryY=0;entryDx=0;entryDy=0;strokeColor=#000000;" edge="1" parent="1" source="57" target="75">
                    <mxGeometry relative="1" as="geometry">
                        <Array as="points">
                            <mxPoint x="845" y="-860"/>
                            <mxPoint x="810" y="-860"/>
                        </Array>
                    </mxGeometry>
                </mxCell>
                <mxCell id="57" value="product_index" style="rounded=0;whiteSpace=wrap;html=1;fillColor=#008a00;fontColor=#ffffff;strokeColor=#000000;" vertex="1" parent="1">
                    <mxGeometry x="800" y="-1010" width="90" height="40" as="geometry"/>
                </mxCell>
                <mxCell id="58" style="edgeStyle=orthogonalEdgeStyle;html=1;exitX=0.25;exitY=1;exitDx=0;exitDy=0;entryX=0.75;entryY=0;entryDx=0;entryDy=0;strokeColor=#000000;" edge="1" parent="1" source="59" target="73">
                    <mxGeometry relative="1" as="geometry"/>
                </mxCell>
                <mxCell id="87" style="edgeStyle=orthogonalEdgeStyle;html=1;exitX=0.25;exitY=0;exitDx=0;exitDy=0;entryX=0.25;entryY=0;entryDx=0;entryDy=0;strokeColor=#000000;" edge="1" parent="1" source="59" target="71">
                    <mxGeometry relative="1" as="geometry">
                        <Array as="points">
                            <mxPoint x="1070" y="-1040"/>
                            <mxPoint x="770" y="-1040"/>
                        </Array>
                    </mxGeometry>
                </mxCell>
                <mxCell id="269" style="edgeStyle=orthogonalEdgeStyle;html=1;exitX=1;exitY=0.75;exitDx=0;exitDy=0;entryX=0.75;entryY=0;entryDx=0;entryDy=0;strokeColor=#000000;fontSize=7;" edge="1" parent="1" source="59" target="65">
                    <mxGeometry relative="1" as="geometry"/>
                </mxCell>
                <mxCell id="59" value="currency" style="rounded=0;whiteSpace=wrap;html=1;fillColor=#008a00;fontColor=#ffffff;strokeColor=#000000;" vertex="1" parent="1">
                    <mxGeometry x="1050" y="-1010" width="80" height="40" as="geometry"/>
                </mxCell>
                <mxCell id="60" style="edgeStyle=orthogonalEdgeStyle;html=1;exitX=0.5;exitY=0;exitDx=0;exitDy=0;entryX=0.5;entryY=1;entryDx=0;entryDy=0;strokeColor=#000000;" edge="1" parent="1" source="61" target="65">
                    <mxGeometry relative="1" as="geometry"/>
                </mxCell>
                <mxCell id="92" style="edgeStyle=orthogonalEdgeStyle;html=1;exitX=0.75;exitY=0;exitDx=0;exitDy=0;entryX=0.5;entryY=1;entryDx=0;entryDy=0;strokeColor=#000000;" edge="1" parent="1" source="61" target="62">
                    <mxGeometry relative="1" as="geometry"/>
                </mxCell>
                <mxCell id="61" value="call&lt;br&gt;add_currency" style="rounded=0;whiteSpace=wrap;html=1;fillColor=#6a00ff;fontColor=#ffffff;strokeColor=#000000;" vertex="1" parent="1">
                    <mxGeometry x="1095" y="-860" width="80" height="40" as="geometry"/>
                </mxCell>
                <mxCell id="62" value="return" style="rounded=0;whiteSpace=wrap;html=1;fillColor=#6a00ff;fontColor=#ffffff;strokeColor=#000000;" vertex="1" parent="1">
                    <mxGeometry x="1190" y="-930" width="80" height="40" as="geometry"/>
                </mxCell>
                <mxCell id="63" style="edgeStyle=orthogonalEdgeStyle;html=1;exitX=0.5;exitY=0;exitDx=0;exitDy=0;entryX=0.75;entryY=1;entryDx=0;entryDy=0;strokeColor=#000000;" edge="1" parent="1" source="65" target="59">
                    <mxGeometry relative="1" as="geometry"/>
                </mxCell>
                <mxCell id="65" value="insert" style="rounded=0;whiteSpace=wrap;html=1;fillColor=#a20025;fontColor=#ffffff;strokeColor=#000000;" vertex="1" parent="1">
                    <mxGeometry x="1095" y="-930" width="80" height="40" as="geometry"/>
                </mxCell>
                <mxCell id="66" style="edgeStyle=orthogonalEdgeStyle;html=1;exitX=0.5;exitY=0;exitDx=0;exitDy=0;entryX=0.5;entryY=1;entryDx=0;entryDy=0;strokeColor=#000000;" edge="1" parent="1" source="67" target="75">
                    <mxGeometry relative="1" as="geometry"/>
                </mxCell>
                <mxCell id="67" value="call&lt;br&gt;add_product" style="rounded=0;whiteSpace=wrap;html=1;fillColor=#6a00ff;fontColor=#ffffff;strokeColor=#000000;" vertex="1" parent="1">
                    <mxGeometry x="750" y="-770" width="80" height="40" as="geometry"/>
                </mxCell>
                <mxCell id="68" value="return" style="rounded=0;whiteSpace=wrap;html=1;fillColor=#6a00ff;fontColor=#ffffff;strokeColor=#000000;" vertex="1" parent="1">
                    <mxGeometry x="650" y="-930" width="80" height="40" as="geometry"/>
                </mxCell>
                <mxCell id="69" style="edgeStyle=orthogonalEdgeStyle;html=1;exitX=0.5;exitY=0;exitDx=0;exitDy=0;entryX=0.25;entryY=1;entryDx=0;entryDy=0;strokeColor=#000000;" edge="1" parent="1" source="71" target="57">
                    <mxGeometry relative="1" as="geometry"/>
                </mxCell>
                <mxCell id="71" value="insert" style="rounded=0;whiteSpace=wrap;html=1;fillColor=#a20025;fontColor=#ffffff;strokeColor=#000000;" vertex="1" parent="1">
                    <mxGeometry x="750" y="-930" width="80" height="40" as="geometry"/>
                </mxCell>
                <mxCell id="72" style="edgeStyle=orthogonalEdgeStyle;html=1;exitX=0.5;exitY=1;exitDx=0;exitDy=0;entryX=0.5;entryY=0;entryDx=0;entryDy=0;strokeColor=#000000;" edge="1" parent="1" source="73" target="77">
                    <mxGeometry relative="1" as="geometry"/>
                </mxCell>
                <mxCell id="73" value="cross" style="rounded=0;whiteSpace=wrap;html=1;fillColor=#a20025;fontColor=#ffffff;strokeColor=#000000;" vertex="1" parent="1">
                    <mxGeometry x="930" y="-930" width="80" height="40" as="geometry"/>
                </mxCell>
                <mxCell id="74" style="edgeStyle=orthogonalEdgeStyle;html=1;exitX=0.5;exitY=0;exitDx=0;exitDy=0;entryX=0.5;entryY=1;entryDx=0;entryDy=0;strokeColor=#000000;" edge="1" parent="1" source="75" target="71">
                    <mxGeometry relative="1" as="geometry"/>
                </mxCell>
                <mxCell id="85" style="edgeStyle=orthogonalEdgeStyle;html=1;exitX=0.25;exitY=0;exitDx=0;exitDy=0;entryX=0.5;entryY=1;entryDx=0;entryDy=0;strokeColor=#000000;" edge="1" parent="1" source="75" target="68">
                    <mxGeometry relative="1" as="geometry"/>
                </mxCell>
                <mxCell id="75" value="size" style="rounded=0;whiteSpace=wrap;html=1;fillColor=#a20025;fontColor=#ffffff;strokeColor=#000000;" vertex="1" parent="1">
                    <mxGeometry x="750" y="-840" width="80" height="40" as="geometry"/>
                </mxCell>
                <mxCell id="76" style="edgeStyle=orthogonalEdgeStyle;html=1;exitX=0.5;exitY=1;exitDx=0;exitDy=0;entryX=0.5;entryY=0;entryDx=0;entryDy=0;strokeColor=#000000;" edge="1" parent="1" source="77" target="79">
                    <mxGeometry relative="1" as="geometry"/>
                </mxCell>
                <mxCell id="77" value="where" style="rounded=0;whiteSpace=wrap;html=1;fillColor=#a20025;fontColor=#ffffff;strokeColor=#000000;" vertex="1" parent="1">
                    <mxGeometry x="930" y="-860" width="80" height="40" as="geometry"/>
                </mxCell>
                <mxCell id="78" style="edgeStyle=orthogonalEdgeStyle;html=1;exitX=0.5;exitY=1;exitDx=0;exitDy=0;entryX=0.5;entryY=0;entryDx=0;entryDy=0;strokeColor=#000000;" edge="1" parent="1" source="79" target="81">
                    <mxGeometry relative="1" as="geometry"/>
                </mxCell>
                <mxCell id="79" value="flatten" style="rounded=0;whiteSpace=wrap;html=1;fillColor=#a20025;fontColor=#ffffff;strokeColor=#000000;" vertex="1" parent="1">
                    <mxGeometry x="930" y="-790" width="80" height="40" as="geometry"/>
                </mxCell>
                <mxCell id="80" style="edgeStyle=orthogonalEdgeStyle;html=1;exitX=0.5;exitY=1;exitDx=0;exitDy=0;entryX=0.5;entryY=0;entryDx=0;entryDy=0;strokeColor=#000000;" edge="1" parent="1" source="81" target="82">
                    <mxGeometry relative="1" as="geometry"/>
                </mxCell>
                <mxCell id="81" value="map" style="rounded=0;whiteSpace=wrap;html=1;fillColor=#a20025;fontColor=#ffffff;strokeColor=#000000;" vertex="1" parent="1">
                    <mxGeometry x="930" y="-720" width="80" height="40" as="geometry"/>
                </mxCell>
                <mxCell id="82" value="return" style="rounded=0;whiteSpace=wrap;html=1;fillColor=#6a00ff;fontColor=#ffffff;strokeColor=#000000;" vertex="1" parent="1">
                    <mxGeometry x="930" y="-650" width="80" height="40" as="geometry"/>
                </mxCell>
                <mxCell id="83" style="edgeStyle=orthogonalEdgeStyle;html=1;exitX=0.5;exitY=1;exitDx=0;exitDy=0;entryX=0.5;entryY=0;entryDx=0;entryDy=0;strokeColor=#000000;" edge="1" parent="1" source="84" target="73">
                    <mxGeometry relative="1" as="geometry"/>
                </mxCell>
                <mxCell id="84" value="call&lt;br&gt;get_products" style="rounded=0;whiteSpace=wrap;html=1;fillColor=#6a00ff;fontColor=#ffffff;strokeColor=#000000;" vertex="1" parent="1">
                    <mxGeometry x="930" y="-1010" width="80" height="40" as="geometry"/>
                </mxCell>
                <mxCell id="89" value="ref check" style="text;html=1;strokeColor=none;fillColor=none;align=center;verticalAlign=middle;whiteSpace=wrap;rounded=0;" vertex="1" parent="1">
                    <mxGeometry x="210" y="-1060" width="60" height="30" as="geometry"/>
                </mxCell>
                <mxCell id="90" value="ref check" style="text;html=1;strokeColor=none;fillColor=none;align=center;verticalAlign=middle;whiteSpace=wrap;rounded=0;" vertex="1" parent="1">
                    <mxGeometry x="890" y="-1070" width="60" height="30" as="geometry"/>
                </mxCell>
                <mxCell id="93" value="push down returns" style="text;html=1;strokeColor=none;fillColor=none;align=center;verticalAlign=middle;whiteSpace=wrap;rounded=0;" vertex="1" parent="1">
                    <mxGeometry x="660" y="-980" width="60" height="30" as="geometry"/>
                </mxCell>
                <mxCell id="95" style="edgeStyle=orthogonalEdgeStyle;html=1;exitX=0.75;exitY=1;exitDx=0;exitDy=0;entryX=0.25;entryY=0;entryDx=0;entryDy=0;strokeColor=#000000;" edge="1" parent="1" source="97" target="113">
                    <mxGeometry relative="1" as="geometry"/>
                </mxCell>
                <mxCell id="96" style="edgeStyle=orthogonalEdgeStyle;html=1;exitX=0.5;exitY=1;exitDx=0;exitDy=0;entryX=0.75;entryY=0;entryDx=0;entryDy=0;strokeColor=#000000;" edge="1" parent="1" source="97" target="116">
                    <mxGeometry relative="1" as="geometry">
                        <Array as="points">
                            <mxPoint x="1535" y="-850"/>
                            <mxPoint x="1500" y="-850"/>
                        </Array>
                    </mxGeometry>
                </mxCell>
                <mxCell id="97" value="product_index" style="rounded=0;whiteSpace=wrap;html=1;fillColor=#008a00;fontColor=#ffffff;strokeColor=#000000;" vertex="1" parent="1">
                    <mxGeometry x="1490" y="-1000" width="90" height="40" as="geometry"/>
                </mxCell>
                <mxCell id="98" style="edgeStyle=orthogonalEdgeStyle;html=1;exitX=0.25;exitY=1;exitDx=0;exitDy=0;entryX=0.75;entryY=0;entryDx=0;entryDy=0;strokeColor=#000000;" edge="1" parent="1" source="100" target="113">
                    <mxGeometry relative="1" as="geometry"/>
                </mxCell>
                <mxCell id="99" style="edgeStyle=orthogonalEdgeStyle;html=1;exitX=0.25;exitY=0;exitDx=0;exitDy=0;entryX=0.25;entryY=0;entryDx=0;entryDy=0;strokeColor=#000000;" edge="1" parent="1" source="100" target="111">
                    <mxGeometry relative="1" as="geometry">
                        <Array as="points">
                            <mxPoint x="1760" y="-1030"/>
                            <mxPoint x="1460" y="-1030"/>
                        </Array>
                    </mxGeometry>
                </mxCell>
                <mxCell id="270" style="edgeStyle=orthogonalEdgeStyle;html=1;exitX=1;exitY=0.75;exitDx=0;exitDy=0;entryX=0.75;entryY=0;entryDx=0;entryDy=0;strokeColor=#000000;fontSize=7;" edge="1" parent="1" source="100" target="106">
                    <mxGeometry relative="1" as="geometry"/>
                </mxCell>
                <mxCell id="100" value="currency" style="rounded=0;whiteSpace=wrap;html=1;fillColor=#008a00;fontColor=#ffffff;strokeColor=#000000;" vertex="1" parent="1">
                    <mxGeometry x="1740" y="-1000" width="80" height="40" as="geometry"/>
                </mxCell>
                <mxCell id="101" style="edgeStyle=orthogonalEdgeStyle;html=1;exitX=0.5;exitY=0;exitDx=0;exitDy=0;entryX=0.5;entryY=1;entryDx=0;entryDy=0;strokeColor=#000000;" edge="1" parent="1" source="103" target="106">
                    <mxGeometry relative="1" as="geometry"/>
                </mxCell>
                <mxCell id="102" style="edgeStyle=orthogonalEdgeStyle;html=1;exitX=0.75;exitY=0;exitDx=0;exitDy=0;entryX=0.5;entryY=1;entryDx=0;entryDy=0;strokeColor=#000000;" edge="1" parent="1" source="103" target="104">
                    <mxGeometry relative="1" as="geometry"/>
                </mxCell>
                <mxCell id="103" value="call&lt;br&gt;add_currency" style="rounded=0;whiteSpace=wrap;html=1;fillColor=#6a00ff;fontColor=#ffffff;strokeColor=#000000;" vertex="1" parent="1">
                    <mxGeometry x="1785" y="-850" width="80" height="40" as="geometry"/>
                </mxCell>
                <mxCell id="104" value="return" style="rounded=0;whiteSpace=wrap;html=1;fillColor=#6a00ff;fontColor=#ffffff;strokeColor=#000000;" vertex="1" parent="1">
                    <mxGeometry x="1880" y="-920" width="80" height="40" as="geometry"/>
                </mxCell>
                <mxCell id="105" style="edgeStyle=orthogonalEdgeStyle;html=1;exitX=0.5;exitY=0;exitDx=0;exitDy=0;entryX=0.75;entryY=1;entryDx=0;entryDy=0;strokeColor=#000000;" edge="1" parent="1" source="106" target="100">
                    <mxGeometry relative="1" as="geometry"/>
                </mxCell>
                <mxCell id="106" value="insert" style="rounded=0;whiteSpace=wrap;html=1;fillColor=#a20025;fontColor=#ffffff;strokeColor=#000000;" vertex="1" parent="1">
                    <mxGeometry x="1785" y="-920" width="80" height="40" as="geometry"/>
                </mxCell>
                <mxCell id="107" style="edgeStyle=orthogonalEdgeStyle;html=1;exitX=0.5;exitY=0;exitDx=0;exitDy=0;entryX=0.5;entryY=1;entryDx=0;entryDy=0;strokeColor=#000000;" edge="1" parent="1" source="108" target="116">
                    <mxGeometry relative="1" as="geometry"/>
                </mxCell>
                <mxCell id="108" value="call&lt;br&gt;add_product" style="rounded=0;whiteSpace=wrap;html=1;fillColor=#6a00ff;fontColor=#ffffff;strokeColor=#000000;" vertex="1" parent="1">
                    <mxGeometry x="1440" y="-760" width="80" height="40" as="geometry"/>
                </mxCell>
                <mxCell id="109" value="return" style="rounded=0;whiteSpace=wrap;html=1;fillColor=#6a00ff;fontColor=#ffffff;strokeColor=#000000;" vertex="1" parent="1">
                    <mxGeometry x="1340" y="-920" width="80" height="40" as="geometry"/>
                </mxCell>
                <mxCell id="110" style="edgeStyle=orthogonalEdgeStyle;html=1;exitX=0.5;exitY=0;exitDx=0;exitDy=0;entryX=0.25;entryY=1;entryDx=0;entryDy=0;strokeColor=#000000;" edge="1" parent="1" source="111" target="97">
                    <mxGeometry relative="1" as="geometry"/>
                </mxCell>
                <mxCell id="111" value="insert" style="rounded=0;whiteSpace=wrap;html=1;fillColor=#a20025;fontColor=#ffffff;strokeColor=#000000;" vertex="1" parent="1">
                    <mxGeometry x="1440" y="-920" width="80" height="40" as="geometry"/>
                </mxCell>
                <mxCell id="113" value="join" style="rounded=0;whiteSpace=wrap;html=1;fillColor=#a20025;fontColor=#ffffff;strokeColor=#000000;" vertex="1" parent="1">
                    <mxGeometry x="1620" y="-920" width="80" height="40" as="geometry"/>
                </mxCell>
                <mxCell id="114" style="edgeStyle=orthogonalEdgeStyle;html=1;exitX=0.5;exitY=0;exitDx=0;exitDy=0;entryX=0.5;entryY=1;entryDx=0;entryDy=0;strokeColor=#000000;" edge="1" parent="1" source="116" target="111">
                    <mxGeometry relative="1" as="geometry"/>
                </mxCell>
                <mxCell id="115" style="edgeStyle=orthogonalEdgeStyle;html=1;exitX=0.25;exitY=0;exitDx=0;exitDy=0;entryX=0.5;entryY=1;entryDx=0;entryDy=0;strokeColor=#000000;" edge="1" parent="1" source="116" target="109">
                    <mxGeometry relative="1" as="geometry"/>
                </mxCell>
                <mxCell id="116" value="size" style="rounded=0;whiteSpace=wrap;html=1;fillColor=#a20025;fontColor=#ffffff;strokeColor=#000000;" vertex="1" parent="1">
                    <mxGeometry x="1440" y="-830" width="80" height="40" as="geometry"/>
                </mxCell>
                <mxCell id="119" style="edgeStyle=orthogonalEdgeStyle;html=1;exitX=0.5;exitY=1;exitDx=0;exitDy=0;entryX=0.5;entryY=0;entryDx=0;entryDy=0;strokeColor=#000000;" edge="1" parent="1" source="113" target="122">
                    <mxGeometry relative="1" as="geometry">
                        <mxPoint x="1660" y="-740" as="sourcePoint"/>
                    </mxGeometry>
                </mxCell>
                <mxCell id="121" style="edgeStyle=orthogonalEdgeStyle;html=1;exitX=0.5;exitY=1;exitDx=0;exitDy=0;entryX=0.5;entryY=0;entryDx=0;entryDy=0;strokeColor=#000000;" edge="1" parent="1" source="122" target="123">
                    <mxGeometry relative="1" as="geometry"/>
                </mxCell>
                <mxCell id="122" value="map" style="rounded=0;whiteSpace=wrap;html=1;fillColor=#a20025;fontColor=#ffffff;strokeColor=#000000;" vertex="1" parent="1">
                    <mxGeometry x="1620" y="-850" width="80" height="40" as="geometry"/>
                </mxCell>
                <mxCell id="123" value="return" style="rounded=0;whiteSpace=wrap;html=1;fillColor=#6a00ff;fontColor=#ffffff;strokeColor=#000000;" vertex="1" parent="1">
                    <mxGeometry x="1620" y="-780" width="80" height="40" as="geometry"/>
                </mxCell>
                <mxCell id="124" style="edgeStyle=orthogonalEdgeStyle;html=1;exitX=0.5;exitY=1;exitDx=0;exitDy=0;entryX=0.5;entryY=0;entryDx=0;entryDy=0;strokeColor=#000000;" edge="1" parent="1" source="125" target="113">
                    <mxGeometry relative="1" as="geometry"/>
                </mxCell>
                <mxCell id="125" value="call&lt;br&gt;get_products" style="rounded=0;whiteSpace=wrap;html=1;fillColor=#6a00ff;fontColor=#ffffff;strokeColor=#000000;" vertex="1" parent="1">
                    <mxGeometry x="1620" y="-1000" width="80" height="40" as="geometry"/>
                </mxCell>
                <mxCell id="126" value="ref check" style="text;html=1;strokeColor=none;fillColor=none;align=center;verticalAlign=middle;whiteSpace=wrap;rounded=0;" vertex="1" parent="1">
                    <mxGeometry x="1580" y="-1060" width="60" height="30" as="geometry"/>
                </mxCell>
                <mxCell id="130" value="merge flatten &amp;amp; map" style="text;html=1;strokeColor=none;fillColor=none;align=center;verticalAlign=middle;whiteSpace=wrap;rounded=0;" vertex="1" parent="1">
                    <mxGeometry x="1700" y="-845" width="60" height="30" as="geometry"/>
                </mxCell>
                <mxCell id="131" value="merge cross &amp;amp; where" style="text;html=1;strokeColor=none;fillColor=none;align=center;verticalAlign=middle;whiteSpace=wrap;rounded=0;" vertex="1" parent="1">
                    <mxGeometry x="1700" y="-915" width="60" height="30" as="geometry"/>
                </mxCell>
                <mxCell id="132" style="edgeStyle=orthogonalEdgeStyle;html=1;exitX=0.75;exitY=1;exitDx=0;exitDy=0;entryX=0.25;entryY=0;entryDx=0;entryDy=0;strokeColor=#000000;" edge="1" parent="1" source="134" target="197">
                    <mxGeometry relative="1" as="geometry"/>
                </mxCell>
                <mxCell id="133" style="edgeStyle=orthogonalEdgeStyle;html=1;exitX=0.5;exitY=1;exitDx=0;exitDy=0;entryX=0.75;entryY=0;entryDx=0;entryDy=0;strokeColor=#000000;" edge="1" parent="1" source="134" target="152">
                    <mxGeometry relative="1" as="geometry">
                        <Array as="points">
                            <mxPoint x="215" y="-250"/>
                            <mxPoint x="180" y="-250"/>
                        </Array>
                    </mxGeometry>
                </mxCell>
                <mxCell id="134" value="product_index&lt;br&gt;&lt;span style=&quot;font-size: 7px;&quot;&gt;(no delete, contiguous)&lt;/span&gt;" style="rounded=0;whiteSpace=wrap;html=1;fillColor=#008a00;fontColor=#ffffff;strokeColor=#000000;" vertex="1" parent="1">
                    <mxGeometry x="170" y="-400" width="90" height="40" as="geometry"/>
                </mxCell>
                <mxCell id="135" style="edgeStyle=orthogonalEdgeStyle;html=1;exitX=0.25;exitY=1;exitDx=0;exitDy=0;entryX=0.75;entryY=0;entryDx=0;entryDy=0;strokeColor=#000000;" edge="1" parent="1" source="137" target="197">
                    <mxGeometry relative="1" as="geometry"/>
                </mxCell>
                <mxCell id="136" style="edgeStyle=orthogonalEdgeStyle;html=1;exitX=0.25;exitY=0;exitDx=0;exitDy=0;entryX=0.25;entryY=0;entryDx=0;entryDy=0;strokeColor=#000000;" edge="1" parent="1" source="137" target="148">
                    <mxGeometry relative="1" as="geometry">
                        <Array as="points">
                            <mxPoint x="440" y="-430"/>
                            <mxPoint x="140" y="-430"/>
                        </Array>
                    </mxGeometry>
                </mxCell>
                <mxCell id="267" style="edgeStyle=orthogonalEdgeStyle;html=1;exitX=1;exitY=0.75;exitDx=0;exitDy=0;entryX=0.75;entryY=0;entryDx=0;entryDy=0;strokeColor=#000000;fontSize=7;" edge="1" parent="1" source="137" target="143">
                    <mxGeometry relative="1" as="geometry"/>
                </mxCell>
                <mxCell id="137" value="currency&lt;br&gt;&lt;font style=&quot;font-size: 7px;&quot;&gt;(no delete, contiguous)&lt;/font&gt;" style="rounded=0;whiteSpace=wrap;html=1;fillColor=#008a00;fontColor=#ffffff;strokeColor=#000000;" vertex="1" parent="1">
                    <mxGeometry x="420" y="-400" width="80" height="40" as="geometry"/>
                </mxCell>
                <mxCell id="138" style="edgeStyle=orthogonalEdgeStyle;html=1;exitX=0.5;exitY=0;exitDx=0;exitDy=0;entryX=0.5;entryY=1;entryDx=0;entryDy=0;strokeColor=#000000;" edge="1" parent="1" source="140" target="143">
                    <mxGeometry relative="1" as="geometry"/>
                </mxCell>
                <mxCell id="139" style="edgeStyle=orthogonalEdgeStyle;html=1;exitX=0.75;exitY=0;exitDx=0;exitDy=0;entryX=0.5;entryY=1;entryDx=0;entryDy=0;strokeColor=#000000;" edge="1" parent="1" source="140" target="141">
                    <mxGeometry relative="1" as="geometry"/>
                </mxCell>
                <mxCell id="140" value="call&lt;br&gt;add_currency" style="rounded=0;whiteSpace=wrap;html=1;fillColor=#6a00ff;fontColor=#ffffff;strokeColor=#000000;" vertex="1" parent="1">
                    <mxGeometry x="465" y="-250" width="80" height="40" as="geometry"/>
                </mxCell>
                <mxCell id="141" value="return" style="rounded=0;whiteSpace=wrap;html=1;fillColor=#6a00ff;fontColor=#ffffff;strokeColor=#000000;" vertex="1" parent="1">
                    <mxGeometry x="560" y="-320" width="80" height="40" as="geometry"/>
                </mxCell>
                <mxCell id="142" style="edgeStyle=orthogonalEdgeStyle;html=1;exitX=0.5;exitY=0;exitDx=0;exitDy=0;entryX=0.75;entryY=1;entryDx=0;entryDy=0;strokeColor=#000000;" edge="1" parent="1" source="143" target="137">
                    <mxGeometry relative="1" as="geometry"/>
                </mxCell>
                <mxCell id="143" value="insert" style="rounded=0;whiteSpace=wrap;html=1;fillColor=#a20025;fontColor=#ffffff;strokeColor=#000000;" vertex="1" parent="1">
                    <mxGeometry x="465" y="-320" width="80" height="40" as="geometry"/>
                </mxCell>
                <mxCell id="144" style="edgeStyle=orthogonalEdgeStyle;html=1;exitX=0.5;exitY=0;exitDx=0;exitDy=0;entryX=0.5;entryY=1;entryDx=0;entryDy=0;strokeColor=#000000;" edge="1" parent="1" source="145" target="152">
                    <mxGeometry relative="1" as="geometry"/>
                </mxCell>
                <mxCell id="145" value="call&lt;br&gt;add_product" style="rounded=0;whiteSpace=wrap;html=1;fillColor=#6a00ff;fontColor=#ffffff;strokeColor=#000000;" vertex="1" parent="1">
                    <mxGeometry x="120" y="-160" width="80" height="40" as="geometry"/>
                </mxCell>
                <mxCell id="146" value="return" style="rounded=0;whiteSpace=wrap;html=1;fillColor=#6a00ff;fontColor=#ffffff;strokeColor=#000000;" vertex="1" parent="1">
                    <mxGeometry x="20" y="-320" width="80" height="40" as="geometry"/>
                </mxCell>
                <mxCell id="147" style="edgeStyle=orthogonalEdgeStyle;html=1;exitX=0.5;exitY=0;exitDx=0;exitDy=0;entryX=0.25;entryY=1;entryDx=0;entryDy=0;strokeColor=#000000;" edge="1" parent="1" source="148" target="134">
                    <mxGeometry relative="1" as="geometry"/>
                </mxCell>
                <mxCell id="148" value="insert" style="rounded=0;whiteSpace=wrap;html=1;fillColor=#a20025;fontColor=#ffffff;strokeColor=#000000;" vertex="1" parent="1">
                    <mxGeometry x="120" y="-320" width="80" height="40" as="geometry"/>
                </mxCell>
                <mxCell id="149" value="view" style="rounded=0;whiteSpace=wrap;html=1;fillColor=#008a00;fontColor=#ffffff;strokeColor=#000000;" vertex="1" parent="1">
                    <mxGeometry x="300" y="-250" width="80" height="40" as="geometry"/>
                </mxCell>
                <mxCell id="150" style="edgeStyle=orthogonalEdgeStyle;html=1;exitX=0.5;exitY=0;exitDx=0;exitDy=0;entryX=0.5;entryY=1;entryDx=0;entryDy=0;strokeColor=#000000;" edge="1" parent="1" source="152" target="148">
                    <mxGeometry relative="1" as="geometry"/>
                </mxCell>
                <mxCell id="151" style="edgeStyle=orthogonalEdgeStyle;html=1;exitX=0.25;exitY=0;exitDx=0;exitDy=0;entryX=0.5;entryY=1;entryDx=0;entryDy=0;strokeColor=#000000;" edge="1" parent="1" source="152" target="146">
                    <mxGeometry relative="1" as="geometry"/>
                </mxCell>
                <mxCell id="152" value="size" style="rounded=0;whiteSpace=wrap;html=1;fillColor=#a20025;fontColor=#ffffff;strokeColor=#000000;" vertex="1" parent="1">
                    <mxGeometry x="120" y="-230" width="80" height="40" as="geometry"/>
                </mxCell>
                <mxCell id="153" style="edgeStyle=orthogonalEdgeStyle;html=1;exitX=0.5;exitY=1;exitDx=0;exitDy=0;entryX=0.5;entryY=0;entryDx=0;entryDy=0;strokeColor=#000000;" edge="1" parent="1" source="149" target="155">
                    <mxGeometry relative="1" as="geometry">
                        <mxPoint x="340" y="-70" as="sourcePoint"/>
                    </mxGeometry>
                </mxCell>
                <mxCell id="154" style="edgeStyle=orthogonalEdgeStyle;html=1;exitX=0.5;exitY=1;exitDx=0;exitDy=0;entryX=0.5;entryY=0;entryDx=0;entryDy=0;strokeColor=#000000;" edge="1" parent="1" source="155" target="156">
                    <mxGeometry relative="1" as="geometry"/>
                </mxCell>
                <mxCell id="155" value="map" style="rounded=0;whiteSpace=wrap;html=1;fillColor=#a20025;fontColor=#ffffff;strokeColor=#000000;" vertex="1" parent="1">
                    <mxGeometry x="300" y="-180" width="80" height="40" as="geometry"/>
                </mxCell>
                <mxCell id="156" value="return" style="rounded=0;whiteSpace=wrap;html=1;fillColor=#6a00ff;fontColor=#ffffff;strokeColor=#000000;" vertex="1" parent="1">
                    <mxGeometry x="300" y="-110" width="80" height="40" as="geometry"/>
                </mxCell>
                <mxCell id="157" style="edgeStyle=orthogonalEdgeStyle;html=1;exitX=0.5;exitY=1;exitDx=0;exitDy=0;strokeColor=#000000;entryX=0.5;entryY=0;entryDx=0;entryDy=0;" edge="1" parent="1" source="158" target="197">
                    <mxGeometry relative="1" as="geometry">
                        <mxPoint x="340" y="-320" as="targetPoint"/>
                    </mxGeometry>
                </mxCell>
                <mxCell id="158" value="call&lt;br&gt;get_products" style="rounded=0;whiteSpace=wrap;html=1;fillColor=#6a00ff;fontColor=#ffffff;strokeColor=#000000;" vertex="1" parent="1">
                    <mxGeometry x="300" y="-400" width="80" height="40" as="geometry"/>
                </mxCell>
                <mxCell id="159" value="ref check" style="text;html=1;strokeColor=none;fillColor=none;align=center;verticalAlign=middle;whiteSpace=wrap;rounded=0;" vertex="1" parent="1">
                    <mxGeometry x="260" y="-460" width="60" height="30" as="geometry"/>
                </mxCell>
                <mxCell id="164" value="track update index of two inflowing tables" style="text;html=1;strokeColor=none;fillColor=none;align=center;verticalAlign=middle;whiteSpace=wrap;rounded=0;fontSize=7;" vertex="1" parent="1">
                    <mxGeometry x="380" y="-315" width="60" height="30" as="geometry"/>
                </mxCell>
                <mxCell id="165" value="Pull new tuples from update to build cached join" style="text;html=1;strokeColor=none;fillColor=none;align=center;verticalAlign=middle;whiteSpace=wrap;rounded=0;fontSize=7;" vertex="1" parent="1">
                    <mxGeometry x="380" y="-245" width="60" height="30" as="geometry"/>
                </mxCell>
                <mxCell id="198" style="edgeStyle=orthogonalEdgeStyle;html=1;exitX=0.5;exitY=1;exitDx=0;exitDy=0;entryX=0.5;entryY=0;entryDx=0;entryDy=0;strokeColor=#000000;fontSize=7;" edge="1" parent="1" source="197" target="149">
                    <mxGeometry relative="1" as="geometry"/>
                </mxCell>
                <mxCell id="197" value="update&lt;br&gt;tracker" style="rounded=0;whiteSpace=wrap;html=1;fillColor=#6a00ff;fontColor=#ffffff;strokeColor=#000000;" vertex="1" parent="1">
                    <mxGeometry x="300" y="-320" width="80" height="40" as="geometry"/>
                </mxCell>
                <mxCell id="199" style="edgeStyle=orthogonalEdgeStyle;html=1;exitX=0.75;exitY=1;exitDx=0;exitDy=0;entryX=0.25;entryY=0;entryDx=0;entryDy=0;strokeColor=#000000;" edge="1" parent="1" source="201" target="230">
                    <mxGeometry relative="1" as="geometry"/>
                </mxCell>
                <mxCell id="200" style="edgeStyle=orthogonalEdgeStyle;html=1;exitX=0.5;exitY=1;exitDx=0;exitDy=0;entryX=0.75;entryY=0;entryDx=0;entryDy=0;strokeColor=#000000;" edge="1" parent="1" source="201" target="219">
                    <mxGeometry relative="1" as="geometry">
                        <Array as="points">
                            <mxPoint x="905" y="-240"/>
                            <mxPoint x="870" y="-240"/>
                        </Array>
                    </mxGeometry>
                </mxCell>
                <mxCell id="201" value="product_index&lt;br&gt;&lt;span style=&quot;font-size: 7px;&quot;&gt;(no delete, contiguous)&lt;/span&gt;" style="rounded=0;whiteSpace=wrap;html=1;fillColor=#008a00;fontColor=#ffffff;strokeColor=#000000;" vertex="1" parent="1">
                    <mxGeometry x="860" y="-390" width="90" height="40" as="geometry"/>
                </mxCell>
                <mxCell id="202" style="edgeStyle=orthogonalEdgeStyle;html=1;exitX=0.25;exitY=1;exitDx=0;exitDy=0;entryX=0.75;entryY=0;entryDx=0;entryDy=0;strokeColor=#000000;" edge="1" parent="1" source="204" target="230">
                    <mxGeometry relative="1" as="geometry"/>
                </mxCell>
                <mxCell id="203" style="edgeStyle=orthogonalEdgeStyle;html=1;exitX=0.25;exitY=0;exitDx=0;exitDy=0;entryX=0.25;entryY=0;entryDx=0;entryDy=0;strokeColor=#000000;" edge="1" parent="1" source="204" target="215">
                    <mxGeometry relative="1" as="geometry">
                        <Array as="points">
                            <mxPoint x="1130" y="-420"/>
                            <mxPoint x="830" y="-420"/>
                        </Array>
                    </mxGeometry>
                </mxCell>
                <mxCell id="266" style="edgeStyle=orthogonalEdgeStyle;html=1;exitX=1;exitY=0.75;exitDx=0;exitDy=0;entryX=0.75;entryY=0;entryDx=0;entryDy=0;strokeColor=#000000;fontSize=7;" edge="1" parent="1" source="204" target="210">
                    <mxGeometry relative="1" as="geometry"/>
                </mxCell>
                <mxCell id="204" value="currency&lt;br&gt;&lt;font style=&quot;font-size: 7px;&quot;&gt;(no delete, contiguous)&lt;/font&gt;" style="rounded=0;whiteSpace=wrap;html=1;fillColor=#008a00;fontColor=#ffffff;strokeColor=#000000;" vertex="1" parent="1">
                    <mxGeometry x="1110" y="-390" width="80" height="40" as="geometry"/>
                </mxCell>
                <mxCell id="205" style="edgeStyle=orthogonalEdgeStyle;html=1;exitX=0.5;exitY=0;exitDx=0;exitDy=0;entryX=0.5;entryY=1;entryDx=0;entryDy=0;strokeColor=#000000;" edge="1" parent="1" source="207" target="210">
                    <mxGeometry relative="1" as="geometry"/>
                </mxCell>
                <mxCell id="206" style="edgeStyle=orthogonalEdgeStyle;html=1;exitX=0.75;exitY=0;exitDx=0;exitDy=0;entryX=0.5;entryY=1;entryDx=0;entryDy=0;strokeColor=#000000;" edge="1" parent="1" source="207" target="208">
                    <mxGeometry relative="1" as="geometry"/>
                </mxCell>
                <mxCell id="207" value="call&lt;br&gt;add_currency" style="rounded=0;whiteSpace=wrap;html=1;fillColor=#6a00ff;fontColor=#ffffff;strokeColor=#000000;" vertex="1" parent="1">
                    <mxGeometry x="1155" y="-240" width="80" height="40" as="geometry"/>
                </mxCell>
                <mxCell id="208" value="return" style="rounded=0;whiteSpace=wrap;html=1;fillColor=#6a00ff;fontColor=#ffffff;strokeColor=#000000;" vertex="1" parent="1">
                    <mxGeometry x="1250" y="-310" width="80" height="40" as="geometry"/>
                </mxCell>
                <mxCell id="209" style="edgeStyle=orthogonalEdgeStyle;html=1;exitX=0.5;exitY=0;exitDx=0;exitDy=0;entryX=0.75;entryY=1;entryDx=0;entryDy=0;strokeColor=#000000;" edge="1" parent="1" source="210" target="204">
                    <mxGeometry relative="1" as="geometry"/>
                </mxCell>
                <mxCell id="210" value="insert" style="rounded=0;whiteSpace=wrap;html=1;fillColor=#a20025;fontColor=#ffffff;strokeColor=#000000;" vertex="1" parent="1">
                    <mxGeometry x="1155" y="-310" width="80" height="40" as="geometry"/>
                </mxCell>
                <mxCell id="211" style="edgeStyle=orthogonalEdgeStyle;html=1;exitX=0.5;exitY=0;exitDx=0;exitDy=0;entryX=0.5;entryY=1;entryDx=0;entryDy=0;strokeColor=#000000;" edge="1" parent="1" source="212" target="219">
                    <mxGeometry relative="1" as="geometry"/>
                </mxCell>
                <mxCell id="212" value="call&lt;br&gt;add_product" style="rounded=0;whiteSpace=wrap;html=1;fillColor=#6a00ff;fontColor=#ffffff;strokeColor=#000000;" vertex="1" parent="1">
                    <mxGeometry x="810" y="-150" width="80" height="40" as="geometry"/>
                </mxCell>
                <mxCell id="213" value="return" style="rounded=0;whiteSpace=wrap;html=1;fillColor=#6a00ff;fontColor=#ffffff;strokeColor=#000000;" vertex="1" parent="1">
                    <mxGeometry x="710" y="-310" width="80" height="40" as="geometry"/>
                </mxCell>
                <mxCell id="214" style="edgeStyle=orthogonalEdgeStyle;html=1;exitX=0.5;exitY=0;exitDx=0;exitDy=0;entryX=0.25;entryY=1;entryDx=0;entryDy=0;strokeColor=#000000;" edge="1" parent="1" source="215" target="201">
                    <mxGeometry relative="1" as="geometry"/>
                </mxCell>
                <mxCell id="215" value="insert" style="rounded=0;whiteSpace=wrap;html=1;fillColor=#a20025;fontColor=#ffffff;strokeColor=#000000;" vertex="1" parent="1">
                    <mxGeometry x="810" y="-310" width="80" height="40" as="geometry"/>
                </mxCell>
                <mxCell id="216" value="map" style="rounded=0;whiteSpace=wrap;html=1;fillColor=#a20025;fontColor=#ffffff;strokeColor=#000000;" vertex="1" parent="1">
                    <mxGeometry x="990" y="-240" width="80" height="40" as="geometry"/>
                </mxCell>
                <mxCell id="217" style="edgeStyle=orthogonalEdgeStyle;html=1;exitX=0.5;exitY=0;exitDx=0;exitDy=0;entryX=0.5;entryY=1;entryDx=0;entryDy=0;strokeColor=#000000;" edge="1" parent="1" source="219" target="215">
                    <mxGeometry relative="1" as="geometry"/>
                </mxCell>
                <mxCell id="218" style="edgeStyle=orthogonalEdgeStyle;html=1;exitX=0.25;exitY=0;exitDx=0;exitDy=0;entryX=0.5;entryY=1;entryDx=0;entryDy=0;strokeColor=#000000;" edge="1" parent="1" source="219" target="213">
                    <mxGeometry relative="1" as="geometry"/>
                </mxCell>
                <mxCell id="219" value="size" style="rounded=0;whiteSpace=wrap;html=1;fillColor=#a20025;fontColor=#ffffff;strokeColor=#000000;" vertex="1" parent="1">
                    <mxGeometry x="810" y="-220" width="80" height="40" as="geometry"/>
                </mxCell>
                <mxCell id="220" style="edgeStyle=orthogonalEdgeStyle;html=1;exitX=0.5;exitY=1;exitDx=0;exitDy=0;entryX=0.5;entryY=0;entryDx=0;entryDy=0;strokeColor=#000000;" edge="1" parent="1" source="216" target="222">
                    <mxGeometry relative="1" as="geometry">
                        <mxPoint x="1030" y="-60" as="sourcePoint"/>
                    </mxGeometry>
                </mxCell>
                <mxCell id="221" style="edgeStyle=orthogonalEdgeStyle;html=1;exitX=0.5;exitY=1;exitDx=0;exitDy=0;entryX=0.5;entryY=0;entryDx=0;entryDy=0;strokeColor=#000000;" edge="1" parent="1" source="222" target="223">
                    <mxGeometry relative="1" as="geometry"/>
                </mxCell>
                <mxCell id="222" value="view" style="rounded=0;whiteSpace=wrap;html=1;fillColor=#008a00;fontColor=#ffffff;strokeColor=#000000;" vertex="1" parent="1">
                    <mxGeometry x="990" y="-170" width="80" height="40" as="geometry"/>
                </mxCell>
                <mxCell id="223" value="return" style="rounded=0;whiteSpace=wrap;html=1;fillColor=#6a00ff;fontColor=#ffffff;strokeColor=#000000;" vertex="1" parent="1">
                    <mxGeometry x="990" y="-100" width="80" height="40" as="geometry"/>
                </mxCell>
                <mxCell id="224" style="edgeStyle=orthogonalEdgeStyle;html=1;exitX=0.5;exitY=1;exitDx=0;exitDy=0;strokeColor=#000000;entryX=0.5;entryY=0;entryDx=0;entryDy=0;" edge="1" parent="1" source="225" target="230">
                    <mxGeometry relative="1" as="geometry">
                        <mxPoint x="1030" y="-310" as="targetPoint"/>
                    </mxGeometry>
                </mxCell>
                <mxCell id="225" value="call&lt;br&gt;get_products" style="rounded=0;whiteSpace=wrap;html=1;fillColor=#6a00ff;fontColor=#ffffff;strokeColor=#000000;" vertex="1" parent="1">
                    <mxGeometry x="990" y="-390" width="80" height="40" as="geometry"/>
                </mxCell>
                <mxCell id="226" value="ref check" style="text;html=1;strokeColor=none;fillColor=none;align=center;verticalAlign=middle;whiteSpace=wrap;rounded=0;" vertex="1" parent="1">
                    <mxGeometry x="950" y="-450" width="60" height="30" as="geometry"/>
                </mxCell>
                <mxCell id="229" style="edgeStyle=orthogonalEdgeStyle;html=1;exitX=0.5;exitY=1;exitDx=0;exitDy=0;entryX=0.5;entryY=0;entryDx=0;entryDy=0;strokeColor=#000000;fontSize=7;" edge="1" parent="1" source="230" target="216">
                    <mxGeometry relative="1" as="geometry"/>
                </mxCell>
                <mxCell id="230" value="simple update&lt;br&gt;tracker" style="rounded=0;whiteSpace=wrap;html=1;fillColor=#008a00;fontColor=#ffffff;strokeColor=#000000;" vertex="1" parent="1">
                    <mxGeometry x="990" y="-310" width="80" height="40" as="geometry"/>
                </mxCell>
                <mxCell id="231" value="push map" style="text;html=1;strokeColor=none;fillColor=none;align=center;verticalAlign=middle;whiteSpace=wrap;rounded=0;fontSize=7;" vertex="1" parent="1">
                    <mxGeometry x="1070" y="-235" width="60" height="30" as="geometry"/>
                </mxCell>
                <mxCell id="232" style="edgeStyle=orthogonalEdgeStyle;html=1;exitX=0.75;exitY=1;exitDx=0;exitDy=0;entryX=0.25;entryY=0;entryDx=0;entryDy=0;strokeColor=#000000;" edge="1" parent="1" source="234" target="261">
                    <mxGeometry relative="1" as="geometry"/>
                </mxCell>
                <mxCell id="233" style="edgeStyle=orthogonalEdgeStyle;html=1;exitX=0.5;exitY=1;exitDx=0;exitDy=0;entryX=0.75;entryY=0;entryDx=0;entryDy=0;strokeColor=#000000;" edge="1" parent="1" source="234" target="252">
                    <mxGeometry relative="1" as="geometry">
                        <Array as="points">
                            <mxPoint x="1575" y="-240"/>
                            <mxPoint x="1540" y="-240"/>
                        </Array>
                    </mxGeometry>
                </mxCell>
                <mxCell id="234" value="product_index&lt;br&gt;&lt;span style=&quot;font-size: 7px;&quot;&gt;(no delete, contiguous)&lt;/span&gt;" style="rounded=0;whiteSpace=wrap;html=1;fillColor=#008a00;fontColor=#ffffff;strokeColor=#000000;" vertex="1" parent="1">
                    <mxGeometry x="1530" y="-390" width="90" height="40" as="geometry"/>
                </mxCell>
                <mxCell id="235" style="edgeStyle=orthogonalEdgeStyle;html=1;exitX=0.25;exitY=1;exitDx=0;exitDy=0;entryX=0.75;entryY=0;entryDx=0;entryDy=0;strokeColor=#000000;" edge="1" parent="1" source="237" target="261">
                    <mxGeometry relative="1" as="geometry"/>
                </mxCell>
                <mxCell id="236" style="edgeStyle=orthogonalEdgeStyle;html=1;exitX=0.25;exitY=0;exitDx=0;exitDy=0;entryX=0.25;entryY=0;entryDx=0;entryDy=0;strokeColor=#000000;" edge="1" parent="1" source="237" target="248">
                    <mxGeometry relative="1" as="geometry">
                        <Array as="points">
                            <mxPoint x="1800" y="-420"/>
                            <mxPoint x="1500" y="-420"/>
                        </Array>
                    </mxGeometry>
                </mxCell>
                <mxCell id="265" style="edgeStyle=orthogonalEdgeStyle;html=1;exitX=1;exitY=0.75;exitDx=0;exitDy=0;entryX=0.75;entryY=0;entryDx=0;entryDy=0;strokeColor=#000000;fontSize=7;" edge="1" parent="1" source="237" target="243">
                    <mxGeometry relative="1" as="geometry"/>
                </mxCell>
                <mxCell id="237" value="currency&lt;br&gt;&lt;font style=&quot;font-size: 7px;&quot;&gt;(no delete, contiguous)&lt;/font&gt;" style="rounded=0;whiteSpace=wrap;html=1;fillColor=#008a00;fontColor=#ffffff;strokeColor=#000000;" vertex="1" parent="1">
                    <mxGeometry x="1780" y="-390" width="80" height="40" as="geometry"/>
                </mxCell>
                <mxCell id="238" style="edgeStyle=orthogonalEdgeStyle;html=1;exitX=0.5;exitY=0;exitDx=0;exitDy=0;entryX=0.5;entryY=1;entryDx=0;entryDy=0;strokeColor=#000000;" edge="1" parent="1" source="240" target="243">
                    <mxGeometry relative="1" as="geometry"/>
                </mxCell>
                <mxCell id="239" style="edgeStyle=orthogonalEdgeStyle;html=1;exitX=0.75;exitY=0;exitDx=0;exitDy=0;entryX=0.5;entryY=1;entryDx=0;entryDy=0;strokeColor=#000000;" edge="1" parent="1" source="240" target="241">
                    <mxGeometry relative="1" as="geometry"/>
                </mxCell>
                <mxCell id="240" value="call&lt;br&gt;add_currency" style="rounded=0;whiteSpace=wrap;html=1;fillColor=#6a00ff;fontColor=#ffffff;strokeColor=#000000;" vertex="1" parent="1">
                    <mxGeometry x="1825" y="-240" width="80" height="40" as="geometry"/>
                </mxCell>
                <mxCell id="241" value="return" style="rounded=0;whiteSpace=wrap;html=1;fillColor=#6a00ff;fontColor=#ffffff;strokeColor=#000000;" vertex="1" parent="1">
                    <mxGeometry x="1920" y="-310" width="80" height="40" as="geometry"/>
                </mxCell>
                <mxCell id="242" style="edgeStyle=orthogonalEdgeStyle;html=1;exitX=0.5;exitY=0;exitDx=0;exitDy=0;entryX=0.75;entryY=1;entryDx=0;entryDy=0;strokeColor=#000000;" edge="1" parent="1" source="243" target="237">
                    <mxGeometry relative="1" as="geometry"/>
                </mxCell>
                <mxCell id="243" value="insert" style="rounded=0;whiteSpace=wrap;html=1;fillColor=#a20025;fontColor=#ffffff;strokeColor=#000000;" vertex="1" parent="1">
                    <mxGeometry x="1825" y="-310" width="80" height="40" as="geometry"/>
                </mxCell>
                <mxCell id="244" style="edgeStyle=orthogonalEdgeStyle;html=1;exitX=0.5;exitY=0;exitDx=0;exitDy=0;entryX=0.5;entryY=1;entryDx=0;entryDy=0;strokeColor=#000000;" edge="1" parent="1" source="245" target="252">
                    <mxGeometry relative="1" as="geometry"/>
                </mxCell>
                <mxCell id="245" value="call&lt;br&gt;add_product" style="rounded=0;whiteSpace=wrap;html=1;fillColor=#6a00ff;fontColor=#ffffff;strokeColor=#000000;" vertex="1" parent="1">
                    <mxGeometry x="1480" y="-150" width="80" height="40" as="geometry"/>
                </mxCell>
                <mxCell id="246" value="return" style="rounded=0;whiteSpace=wrap;html=1;fillColor=#6a00ff;fontColor=#ffffff;strokeColor=#000000;" vertex="1" parent="1">
                    <mxGeometry x="1380" y="-310" width="80" height="40" as="geometry"/>
                </mxCell>
                <mxCell id="247" style="edgeStyle=orthogonalEdgeStyle;html=1;exitX=0.5;exitY=0;exitDx=0;exitDy=0;entryX=0.25;entryY=1;entryDx=0;entryDy=0;strokeColor=#000000;" edge="1" parent="1" source="248" target="234">
                    <mxGeometry relative="1" as="geometry"/>
                </mxCell>
                <mxCell id="248" value="insert" style="rounded=0;whiteSpace=wrap;html=1;fillColor=#a20025;fontColor=#ffffff;strokeColor=#000000;" vertex="1" parent="1">
                    <mxGeometry x="1480" y="-310" width="80" height="40" as="geometry"/>
                </mxCell>
                <mxCell id="249" value="map" style="rounded=0;whiteSpace=wrap;html=1;fillColor=#a20025;fontColor=#ffffff;strokeColor=#000000;" vertex="1" parent="1">
                    <mxGeometry x="1660" y="-240" width="80" height="40" as="geometry"/>
                </mxCell>
                <mxCell id="250" style="edgeStyle=orthogonalEdgeStyle;html=1;exitX=0.5;exitY=0;exitDx=0;exitDy=0;entryX=0.5;entryY=1;entryDx=0;entryDy=0;strokeColor=#000000;" edge="1" parent="1" source="252" target="248">
                    <mxGeometry relative="1" as="geometry"/>
                </mxCell>
                <mxCell id="251" style="edgeStyle=orthogonalEdgeStyle;html=1;exitX=0.25;exitY=0;exitDx=0;exitDy=0;entryX=0.5;entryY=1;entryDx=0;entryDy=0;strokeColor=#000000;" edge="1" parent="1" source="252" target="246">
                    <mxGeometry relative="1" as="geometry"/>
                </mxCell>
                <mxCell id="252" value="size" style="rounded=0;whiteSpace=wrap;html=1;fillColor=#a20025;fontColor=#ffffff;strokeColor=#000000;" vertex="1" parent="1">
                    <mxGeometry x="1480" y="-220" width="80" height="40" as="geometry"/>
                </mxCell>
                <mxCell id="253" style="edgeStyle=orthogonalEdgeStyle;html=1;exitX=0.5;exitY=1;exitDx=0;exitDy=0;entryX=0.5;entryY=0;entryDx=0;entryDy=0;strokeColor=#000000;" edge="1" parent="1" source="249" target="255">
                    <mxGeometry relative="1" as="geometry">
                        <mxPoint x="1700" y="-60" as="sourcePoint"/>
                    </mxGeometry>
                </mxCell>
                <mxCell id="254" style="edgeStyle=orthogonalEdgeStyle;html=1;exitX=0.5;exitY=1;exitDx=0;exitDy=0;entryX=0.5;entryY=0;entryDx=0;entryDy=0;strokeColor=#000000;" edge="1" parent="1" source="255" target="256">
                    <mxGeometry relative="1" as="geometry"/>
                </mxCell>
                <mxCell id="255" value="view" style="rounded=0;whiteSpace=wrap;html=1;fillColor=#008a00;fontColor=#ffffff;strokeColor=#000000;" vertex="1" parent="1">
                    <mxGeometry x="1660" y="-170" width="80" height="40" as="geometry"/>
                </mxCell>
                <mxCell id="256" value="return" style="rounded=0;whiteSpace=wrap;html=1;fillColor=#6a00ff;fontColor=#ffffff;strokeColor=#000000;" vertex="1" parent="1">
                    <mxGeometry x="1660" y="-100" width="80" height="40" as="geometry"/>
                </mxCell>
                <mxCell id="257" style="edgeStyle=orthogonalEdgeStyle;html=1;exitX=0.5;exitY=1;exitDx=0;exitDy=0;strokeColor=#000000;entryX=0.5;entryY=0;entryDx=0;entryDy=0;" edge="1" parent="1" source="258" target="261">
                    <mxGeometry relative="1" as="geometry">
                        <mxPoint x="1700" y="-310" as="targetPoint"/>
                    </mxGeometry>
                </mxCell>
                <mxCell id="258" value="call&lt;br&gt;get_products" style="rounded=0;whiteSpace=wrap;html=1;fillColor=#6a00ff;fontColor=#ffffff;strokeColor=#000000;" vertex="1" parent="1">
                    <mxGeometry x="1660" y="-390" width="80" height="40" as="geometry"/>
                </mxCell>
                <mxCell id="259" value="ref check" style="text;html=1;strokeColor=none;fillColor=none;align=center;verticalAlign=middle;whiteSpace=wrap;rounded=0;" vertex="1" parent="1">
                    <mxGeometry x="1620" y="-450" width="60" height="30" as="geometry"/>
                </mxCell>
                <mxCell id="260" style="edgeStyle=orthogonalEdgeStyle;html=1;exitX=0.5;exitY=1;exitDx=0;exitDy=0;entryX=0.5;entryY=0;entryDx=0;entryDy=0;strokeColor=#000000;fontSize=7;" edge="1" parent="1" source="261" target="249">
                    <mxGeometry relative="1" as="geometry"/>
                </mxCell>
                <mxCell id="261" value="simple update&lt;br&gt;tracker" style="rounded=0;whiteSpace=wrap;html=1;fillColor=#008a00;fontColor=#ffffff;strokeColor=#000000;" vertex="1" parent="1">
                    <mxGeometry x="1660" y="-310" width="80" height="40" as="geometry"/>
                </mxCell>
                <mxCell id="262" value="accessed only by name, index on name)" style="text;html=1;strokeColor=none;fillColor=none;align=center;verticalAlign=middle;whiteSpace=wrap;rounded=0;fontSize=7;" vertex="1" parent="1">
                    <mxGeometry x="1520" y="-420" width="140" height="30" as="geometry"/>
                </mxCell>
                <mxCell id="263" value="could remove unique check, use range check for product_index[id] as we use size for id, will always be unique until overflow" style="text;html=1;strokeColor=none;fillColor=none;align=center;verticalAlign=middle;whiteSpace=wrap;rounded=0;fontSize=7;" vertex="1" parent="1">
                    <mxGeometry x="1365" y="-215" width="110" height="30" as="geometry"/>
                </mxCell>
                <mxCell id="264" value="accessed only by symb, so index on symb" style="text;html=1;strokeColor=none;fillColor=none;align=center;verticalAlign=middle;whiteSpace=wrap;rounded=0;fontSize=7;" vertex="1" parent="1">
                    <mxGeometry x="1810" y="-410" width="150" height="10" as="geometry"/>
                </mxCell>
                <mxCell id="273" value="" style="endArrow=open;dashed=1;html=1;strokeColor=#000000;fontSize=10;endFill=0;endSize=24;" edge="1" parent="1">
                    <mxGeometry width="50" height="50" relative="1" as="geometry">
                        <mxPoint x="560" y="-780" as="sourcePoint"/>
                        <mxPoint x="630" y="-780" as="targetPoint"/>
                    </mxGeometry>
                </mxCell>
                <mxCell id="274" value="" style="endArrow=open;dashed=1;html=1;strokeColor=#000000;fontSize=10;endFill=0;endSize=24;" edge="1" parent="1">
                    <mxGeometry width="50" height="50" relative="1" as="geometry">
                        <mxPoint x="1270" y="-779.9999999999999" as="sourcePoint"/>
                        <mxPoint x="1340" y="-779.9999999999999" as="targetPoint"/>
                    </mxGeometry>
                </mxCell>
                <mxCell id="275" value="" style="endArrow=open;dashed=1;html=1;strokeColor=#000000;fontSize=10;endFill=0;endSize=24;" edge="1" parent="1">
                    <mxGeometry width="50" height="50" relative="1" as="geometry">
                        <mxPoint x="1300" y="-151.17999999999995" as="sourcePoint"/>
                        <mxPoint x="1370" y="-151.17999999999995" as="targetPoint"/>
                    </mxGeometry>
                </mxCell>
                <mxCell id="276" value="" style="endArrow=open;dashed=1;html=1;strokeColor=#000000;fontSize=10;endFill=0;endSize=24;" edge="1" parent="1">
                    <mxGeometry width="50" height="50" relative="1" as="geometry">
                        <mxPoint x="640" y="-151.17999999999995" as="sourcePoint"/>
                        <mxPoint x="710" y="-151.17999999999995" as="targetPoint"/>
                    </mxGeometry>
                </mxCell>
                <mxCell id="277" value="" style="endArrow=open;dashed=1;html=1;strokeColor=#000000;fontSize=10;endFill=0;endSize=24;edgeStyle=orthogonalEdgeStyle;" edge="1" parent="1">
                    <mxGeometry width="50" height="50" relative="1" as="geometry">
                        <mxPoint x="1660" y="-720" as="sourcePoint"/>
                        <mxPoint x="290" y="-470" as="targetPoint"/>
                        <Array as="points">
                            <mxPoint x="1660" y="-570"/>
                            <mxPoint x="290" y="-570"/>
                        </Array>
                    </mxGeometry>
                </mxCell>
            </root>
        </mxGraphModel>
    </diagram>
</mxfile>